{
  "accessors": [
    {
      "bufferView": 2,
      "componentType": 5126,
      "count": 3863,
      "max": [
        4.336670875549316,
        12.71432876586914,
        10.186519622802734
      ],
      "min": [
        -4.336670875549316,
        -19.7401123046875,
        -0.1295199990272522
      ],
      "type": "VEC3"
    },
    {
      "bufferView": 2,
      "byteOffset": 46356,
      "componentType": 5126,
      "count": 3863,
      "max": [
        0.9998284578323364,
        1.0,
        1.0
      ],
      "min": [
        -0.9998284578323364,
        -1.0,
        -1.0
      ],
      "type": "VEC3"
    },
    {
      "bufferView": 3,
      "componentType": 5126,
      "count": 3863,
      "max": [
        0.9999884366989136,
        1.0,
        1.0,
        1.0
      ],
      "min": [
        -0.9999884366989136,
        -1.0,
        -1.0,
        -1.0
      ],
      "type": "VEC4"
    },
    {
      "bufferView": 1,
      "componentType": 5126,
      "count": 3863,
      "max": [
        0.9859619140625,
        0.9288636445999146
      ],
      "min": [
        0.014709471724927425,
        0.011413570493459702
      ],
      "type": "VEC2"
    },
    {
      "bufferView": 1,
      "byteOffset": 30904,
      "componentType": 5126,
      "count": 3863,
      "max": [
        0.9859619140625,
        0.9288636445999146
      ],
      "min": [
        0.014709471724927425,
        0.011413570493459702
      ],
      "type": "VEC2"
    },
    {
      "bufferView": 0,
      "componentType": 5125,
      "count": 15588,
      "type": "SCALAR"
    },
    {
      "bufferView": 2,
      "byteOffset": 92712,
      "componentType": 5126,
      "count": 1382,
      "max": [
        3.6891586780548096,
        11.199673652648926,
        11.363744735717773
      ],
      "min": [
        -3.6891584396362305,
        -17.47511863708496,
        -0.1295199990272522
      ],
      "type": "VEC3"
    },
    {
      "bufferView": 2,
      "byteOffset": 109296,
      "componentType": 5126,
      "count": 1382,
      "max": [
        1.0,
        0.9999713897705078,
        0.9999873042106628
      ],
      "min": [
        -0.9992928504943848,
        -0.7463440299034119,
        -0.9993152022361755
      ],
      "type": "VEC3"
    },
    {
      "bufferView": 3,
      "byteOffset": 61808,
      "componentType": 5126,
      "count": 1382,
      "max": [
        0.9999971985816956,
        0.9999958872795105,
        0.9696599245071411,
        1.0
      ],
      "min": [
        -0.9999972581863403,
        -0.9123784303665161,
        -0.9999696612358093,
        -1.0
      ],
      "type": "VEC4"
    },
    {
      "bufferView": 1,
      "byteOffset": 61808,
      "componentType": 5126,
      "count": 1382,
      "max": [
        0.9859619140625,
        0.9866639375686646
      ],
      "min": [
        0.01058960147202015,
        0.5123900771141052
      ],
      "type": "VEC2"
    },
    {
      "bufferView": 0,
      "byteOffset": 62352,
      "componentType": 5125,
      "count": 4458,
      "type": "SCALAR"
    },
    {
      "bufferView": 2,
      "byteOffset": 125880,
      "componentType": 5126,
      "count": 1631,
      "max": [
        6.783979415893555,
        12.722845077514648,
        11.363744735717773
      ],
      "min": [
        -6.783979415893555,
        -17.610858917236328,
        0.015103914774954319
      ],
      "type": "VEC3"
    },
    {
      "bufferView": 2,
      "byteOffset": 145452,
      "componentType": 5126,
      "count": 1631,
      "max": [
        0.999692976474762,
        0.9990795254707336,
        0.998865008354187
      ],
      "min": [
        -0.999692976474762,
        -0.9990794658660889,
        -0.9988650679588318
      ],
      "type": "VEC3"
    },
    {
      "bufferView": 1,
      "byteOffset": 72864,
      "componentType": 5126,
      "count": 1631,
      "max": [
        0.0,
        0.0
      ],
      "min": [
        0.0,
        0.0
      ],
      "type": "VEC2"
    },
    {
      "bufferView": 0,
      "byteOffset": 80184,
      "componentType": 5125,
      "count": 6444,
      "type": "SCALAR"
    },
    {
      "bufferView": 2,
      "byteOffset": 165024,
      "componentType": 5126,
      "count": 1413,
      "max": [
        6.783979415893555,
        -5.428097248077393,
        5.702147960662842
      ],
      "min": [
        -6.783979415893555,
        -8.228352546691895,
        4.004180431365967
      ],
      "type": "VEC3"
    },
    {
      "bufferView": 2,
      "byteOffset": 181980,
      "componentType": 5126,
      "count": 1413,
      "max": [
        0.9947662949562073,
        0.9871424436569214,
        0.9983053803443909
      ],
      "min": [
        -0.9947662949562073,
        -0.9871216416358948,
        -0.9983013868331909
      ],
      "type": "VEC3"
    },
    {
      "bufferView": 1,
      "byteOffset": 85912,
      "componentType": 5126,
      "count": 1413,
      "max": [
        2.905029296875,
        1.0368651151657104
      ],
      "min": [
        -1.88916015625,
        -1.1529541015625
      ],
      "type": "VEC2"
    },
    {
      "bufferView": 0,
      "byteOffset": 105960,
      "componentType": 5125,
      "count": 3420,
      "type": "SCALAR"
    },
    {
      "bufferView": 2,
      "byteOffset": 198936,
      "componentType": 5126,
      "count": 62,
      "max": [
        1.484408974647522,
        -7.553717613220215,
        11.13525104522705
      ],
      "min": [
        -1.484408974647522,
        -9.280762672424316,
        8.625455856323242
      ],
      "type": "VEC3"
    },
    {
      "bufferView": 2,
      "byteOffset": 199680,
      "componentType": 5126,
      "count": 62,
      "max": [
        0.13575032353401184,
        0.9999713897705078,
        0.857837438583374
      ],
      "min": [
        -0.13575156033039093,
        0.5139212012290955,
        -0.007564499508589506
      ],
      "type": "VEC3"
    },
    {
      "bufferView": 1,
      "byteOffset": 97216,
      "componentType": 5126,
      "count": 62,
      "max": [
        -0.0206909216940403,
        0.9304811358451843
      ],
      "min": [
        -0.2918701469898224,
        0.3008423447608948
      ],
      "type": "VEC2"
    },
    {
      "bufferView": 0,
      "byteOffset": 119640,
      "componentType": 5125,
      "count": 216,
      "type": "SCALAR"
    }
  ],
  "asset": {
    "extras": {
      "author": "Shriker1 (https://sketchfab.com/Shriker1)",
      "license": "SKETCHFAB Standard (https://sketchfab.com/licenses)",
      "source": "https://sketchfab.com/3d-models/speed-lightcycle-tron-evolution-battle-grids-9415770a116b4ae98097f7786ed3eddf",
      "title": "Speed Lightcycle | Tron Evolution Battle Grids"
    },
    "generator": "Sketchfab-15.55.0",
    "version": "2.0"
  },
  "bufferViews": [
    {
      "buffer": 0,
      "byteLength": 120504,
      "name": "floatBufferViews",
      "target": 34963
    },
    {
      "buffer": 0,
      "byteLength": 97712,
      "byteOffset": 120504,
      "byteStride": 8,
      "name": "floatBufferViews",
      "target": 34962
    },
    {
      "buffer": 0,
      "byteLength": 200424,
      "byteOffset": 218216,
      "byteStride": 12,
      "name": "floatBufferViews",
      "target": 34962
    },
    {
      "buffer": 0,
      "byteLength": 83920,
      "byteOffset": 418640,
      "byteStride": 16,
      "name": "floatBufferViews",
      "target": 34962
    }
  ],
  "buffers": [
    {
      "byteLength": 502560,
      "uri": "scene.bin"
    }
  ],
  "extensionsUsed": [
    "KHR_materials_emissive_strength"
  ],
  "images": [
    {
      "uri": "textures/Base_baseColor.png"
    },
    {
      "uri": "textures/Base_normal.png"
    },
    {
      "uri": "textures/pedal_MAT_baseColor.png"
    },
    {
      "uri": "textures/Side_Readout_baseColor.png"
    }
  ],
  "materials": [
    {
      "doubleSided": true,
      "name": "Base",
      "normalTexture": {
        "index": 1
      },
      "pbrMetallicRoughness": {
        "baseColorTexture": {
          "index": 0
        },
        "roughnessFactor": 0.2544769660250393
      }
    },
    {
      "doubleSided": true,
      "name": "Black",
      "normalTexture": {
        "index": 1
      },
      "pbrMetallicRoughness": {
        "baseColorFactor": [
          0.053573780633981286,
          0.053573780633981286,
          0.053573780633981286,
          1.0
        ],
        "roughnessFactor": 0.24571198693176977
      }
    },
    {
      "doubleSided": true,
      "emissiveFactor": [
        0.06315964807290675,
        0.06982304970914756,
        1.0
      ],
      "extensions": {
        "KHR_materials_emissive_strength": {
          "emissiveStrength": 3.0
        }
      },
      "name": "pipingGlow_MAT",
      "pbrMetallicRoughness": {
        "baseColorFactor": [
          0.07375359999999999,
          0.09886430000000003,
          0.1886790000000001,
          1.0
        ],
        "metallicFactor": 0.0,
        "roughnessFactor": 0.9776369977285252
      }
    },
    {
      "doubleSided": true,
      "name": "pedal_MAT",
      "pbrMetallicRoughness": {
        "baseColorTexture": {
          "index": 2
        },
        "metallicFactor": 0.0,
        "roughnessFactor": 0.8211145618000169
      }
    },
    {
      "doubleSided": true,
      "name": "Side_Readout",
      "pbrMetallicRoughness": {
        "baseColorTexture": {
          "index": 3
        },
        "metallicFactor": 0.0,
        "roughnessFactor": 0.8211145618000169
      }
    }
  ],
  "meshes": [
    {
      "name": "polygon0_Base_0",
      "primitives": [
        {
          "attributes": {
            "NORMAL": 1,
            "POSITION": 0,
            "TANGENT": 2,
            "TEXCOORD_0": 3,
            "TEXCOORD_1": 4
          },
          "indices": 5,
          "material": 0,
          "mode": 4
        }
      ]
    },
    {
      "name": "polygon0_Black_0",
      "primitives": [
        {
          "attributes": {
            "NORMAL": 7,
            "POSITION": 6,
            "TANGENT": 8,
            "TEXCOORD_0": 9
          },
          "indices": 10,
          "material": 1,
          "mode": 4
        }
      ]
    },
    {
      "name": "polygon0_pipingGlow_MAT_0",
      "primitives": [
        {
          "attributes": {
            "NORMAL": 12,
            "POSITION": 11,
            "TEXCOORD_0": 13
          },
          "indices": 14,
          "material": 2,
          "mode": 4
        }
      ]
    },
    {
      "name": "polygon0_pedal_MAT_0",
      "primitives": [
        {
          "attributes": {
            "NORMAL": 16,
            "POSITION": 15,
            "TEXCOORD_0": 17
          },
          "indices": 18,
          "material": 3,
          "mode": 4
        }
      ]
    },
    {
      "name": "polygon0_Side_Readout_0",
      "primitives": [
        {
          "attributes": {
            "NORMAL": 20,
            "POSITION": 19,
            "TEXCOORD_0": 21
          },
          "indices": 22,
          "material": 4,
          "mode": 4
        }
      ]
    }
  ],
  "nodes": [
    {
      "children": [
        1
      ],
      "matrix": [
        1.0,
        0.0,
        0.0,
        0.0,
        0.0,
        2.220446049250313e-16,
        -1.0,
        0.0,
        0.0,
        1.0,
        2.220446049250313e-16,
        0.0,
        0.0,
        0.0,
        0.0,
        1.0
      ],
      "name": "Sketchfab_model"
    },
    {
      "children": [
        2
      ],
      "matrix": [
        0.009999999776482582,
        0.0,
        0.0,
        0.0,
        0.0,
        0.0,
        0.009999999776482582,
        0.0,
        0.0,
        -0.009999999776482582,
        0.0,
        0.0,
        0.0,
        0.0,
        0.0,
        1.0
      ],
      "name": "0398d24f2d5d4558a3f99ca22486d108.fbx"
    },
    {
      "children": [
        3
      ],
      "name": "RootNode"
    },
    {
      "children": [
        4,
        5,
        6,
        7,
        8
      ],
      "matrix": [
        100.0,
        0.0,
        0.0,
        0.0,
        0.0,
        -1.629206793918314e-05,
        -99.99999999999868,
        0.0,
        0.0,
        99.99999999999868,
        -1.629206793918314e-05,
        0.0,
        0.0,
        0.0,
        0.0,
        1.0
      ],
      "name": "polygon0"
    },
    {
      "mesh": 0,
      "name": "polygon0_Base_0"
    },
    {
      "mesh": 1,
      "name": "polygon0_Black_0"
    },
    {
      "mesh": 2,
      "name": "polygon0_pipingGlow_MAT_0"
    },
    {
      "mesh": 3,
      "name": "polygon0_pedal_MAT_0"
    },
    {
      "mesh": 4,
      "name": "polygon0_Side_Readout_0"
    }
  ],
  "samplers": [
    {
      "magFilter": 9729,
      "minFilter": 9987,
      "wrapS": 10497,
      "wrapT": 10497
    }
  ],
  "scene": 0,
  "scenes": [
    {
      "name": "Sketchfab_Scene",
      "nodes": [
        0
      ]
    }
  ],
  "textures": [
    {
      "sampler": 0,
      "source": 0
    },
    {
      "sampler": 0,
      "source": 1
    },
    {
      "sampler": 0,
      "source": 2
    },
    {
      "sampler": 0,
      "source": 3
    }
  ]
}
